# xmcd
#
# Track frame offsets: 
#        150
#        45300
#        86925
#        113025
#        140175
#        168300
#        195825
#
# Disc length: 3168 seconds
#
# Revision: 9
# Processed by: cddbd v1.5.2PL0 Copyright (c) Steve Scherf et al.
# Submitted via: ExactAudioCopy v0.99pb5
#
DISCID=570c5e07
DTITLE=Uelgas Ensemble, Paul Van Nevel - Utopia Triumphans, The great 
DTITLE=Polyphony of the Renaissance 
DYEAR=1994
DGENRE=Classique
TTITLE0=Thomas Tallis (c.1505-1585) - Spem in alium  (Motet à 40 voix)
TTITLE1=Costanzo Porta (c.1529-1601) - Sanctus - Agnus Dei  (from ''Mi
TTITLE1=ssa Ducalis'') à 14 voix
TTITLE2=Josquin Desprez (c.1440-1521) - Qui habitat  (Motet à 24 voix)
TTITLE3=Johannes Ockeghem (c.1410-1497) - Deo Gratias  (Canon à 36 voi
TTITLE3=x)
TTITLE4=Pierre de Manchicourt (c.1510-1564) - Laudate Dominum  (Motet 
TTITLE4=à 6 voix)
TTITLE5=Giovanni Gabrieli (c.1553-1612) - Exaudi me Domine  (Motet à 1
TTITLE5=6 voix)
TTITLE6=Alessandro Striggio (c.1535-1592) - Ecce beatam lucem  (Motet 
TTITLE6=non liturgique à 40 voix)
EXTD=YEAR: 1994
EXTT0=
EXTT1=
EXTT2=
EXTT3=
EXTT4=
EXTT5=
EXTT6=
PLAYORDER=
